# xmcd
#
# Track frame offsets:
#	150
#	12914
#	39994
#	55193
#	81191
#	94623
#	110313
#	151690
#	174102
#	190364
#	216629
#	247675
#	271393
#	291894
#	313190
#
# Disc length: 4587 seconds
#
# Revision: 1
# Processed by: cddbd v1.5.1PL0 Copyright (c) Steve Scherf et al.
# Submitted via: Audio-CD-Archiv 4.00.519
#
DISCID=c111e90f
DTITLE=Savoy Brown - Hellbound Train (1972)/Wire Fire (1975)
DYEAR=2004
DGENRE=blues
TTITLE0=unbekannt - Doin' Fine
TTITLE1=unbekannt - Lost And Lonely Child
TTITLE2=unbekannt - I'll Make Everything Alright
TTITLE3=unbekannt - Troubled By These Days And Times
TTITLE4=unbekannt - If I Could See An End
TTITLE5=unbekannt - It'll Make You Happy
TTITLE6=unbekannt - Hellbound Train
TTITLE7=unbekannt - Put Your Hands Together
TTITLE8=unbekannt - Strangest Blues
TTITLE9=unbekannt - Here Comes The Music
TTITLE10=unbekannt - Oh What A Feeling (Hidden Bonus Track)
TTITLE11=unbekannt - Hero To Zero
TTITLE12=unbekannt - Deep Water
TTITLE13=unbekannt - Can't Get On
TTITLE14=unbekannt - Born Into Pain
EXTD=
EXTT0=
EXTT1=
EXTT2=
EXTT3=
EXTT4=
EXTT5=
EXTT6=
EXTT7=
EXTT8=
EXTT9=
EXTT10=
EXTT11=
EXTT12=
EXTT13=
EXTT14=
PLAYORDER=
